<?xml version="1.0" encoding="utf-8"?>
<!-- Generator: Adobe Illustrator 25.3.1, SVG Export Plug-In . SVG Version: 6.00 Build 0)  -->
<svg version="1.1" id="Layer_1" xmlns="http://www.w3.org/2000/svg" xmlns:xlink="http://www.w3.org/1999/xlink" x="0px" y="0px"
	 viewBox="0 0 273.5 144" style="enable-background:new 0 0 273.5 144;" xml:space="preserve">
<style type="text/css">
	.st0{opacity:0.8;fill:#25221D;}
	.st1{fill:#6BB232;}
	.st2{fill:#E5E8EF;}
</style>
<path class="st0" d="M81.2,134.8v-0.2h-2c-34.6,0-62.7-28.1-62.7-62.7c0-34.6,28.1-62.7,62.7-62.7h129.6c34.6,0,62.7,28.1,62.7,62.7
	c0,34.6-28.1,62.7-62.7,62.7h-2v0.2H81.2z"/>
<circle class="st1" cx="72" cy="72" r="70"/>
<path class="st2" d="M62,72c0-17.9,14.5-32.4,32.4-32.4c3.6,0,7.2,0.6,10.6,1.8C88.1,23.2,59.6,22.1,41.4,39S22.1,84.4,39,102.6
	s45.4,19.3,63.6,2.4c0.8-0.8,1.6-1.6,2.4-2.4c-16.9,5.9-35.4-3.1-41.2-20C62.6,79.2,62,75.6,62,72z"/>
</svg>
