<svg id="Layer_1" data-name="Layer 1" xmlns="http://www.w3.org/2000/svg" viewBox="0 0 420 413"><defs><style>.cls-1{fill:#222;}</style></defs><path class="cls-1" d="M150,413h-5c-4.44-1.75-8.95-3.35-13.32-5.28C59.74,376,16.63,321.6,3,244.09,1.61,236.46,1,228.7,0,221V203l1.86-15.79q9.07-76.85,65.29-130,47-44.43,111.16-54.28C186.17,1.7,194.1,1,202,0h17c1.44.3,2.88.64,4.33.88,14.4,2.42,29.31,3.21,43.12,7.5C348.14,33.79,398,88.85,416,172.46c2.16,10,2.74,20.35,4.05,30.54v18a35.84,35.84,0,0,0-.88,3.79c-1.06,8.56-1.53,17.23-3.17,25.67C404.07,311.66,371.7,359.12,318.82,392c-13.69,8.5-29.17,14.1-43.82,21h-5c-6.32-2.86-8-8-7.84-14.56.39-17.82.63-35.65.61-53.48,0-11.24-1.63-22.26-7.67-32.11-1.58-2.58-3.53-4.93-5.3-7.37,8-1.53,15.77-2.67,23.35-4.51,24.51-5.94,45.23-17.53,58-40.36,9.77-17.46,12.62-36.52,13.17-56.22.61-21.83-5-41.4-19.12-58.34a6.5,6.5,0,0,1-1.11-5.15c4.26-14.84,3.79-29.6-.22-44.34-2.76-10.16-4.43-11.07-15.06-9.07-15.52,2.92-29.05,10.32-42,18.83a10,10,0,0,1-8.71,1.62,196,196,0,0,0-96.31.12c-3.1.77-5.25,0-7.8-1.48-7.44-4.4-14.88-8.87-22.65-12.62-8.7-4.2-17.85-7.23-27.78-7.06-2.7,0-4.19.79-5.13,3.5-5.62,16.29-7.21,32.78-2.27,49.48.89,3,.36,4.81-1.53,7.1a81.06,81.06,0,0,0-15.93,31.29c-3.81,14.47-3.27,29.06-1.53,43.64,1.87,15.66,6.21,30.63,15.11,43.92,14.06,21,34.91,31.08,58.75,36.2,6.35,1.37,12.79,2.29,19.65,3.5-6.74,7.29-10.1,15.47-11.82,24.48-.27,1.4-1.28,3.28-2.45,3.79-16.65,7.24-35.94,7.59-49.92-6.94-3.88-4-6.94-8.89-10.2-13.49-7.33-10.32-16.52-17.84-29.52-19.3-4-.45-9.63-1.18-10.84,3.42-.6,2.28,3.38,6.92,6.36,8.8,11.56,7.29,18.38,17.92,23.77,30a52,52,0,0,0,8.9,14.24c13.51,14.51,31.11,16.63,49.65,15,4-.35,8.07-1,13.16-1.73,0,12-.21,23.29.08,34.58C158,405,156.29,410.12,150,413Z"/></svg>