<svg id="Layer_1" data-name="Layer 1" xmlns="http://www.w3.org/2000/svg" viewBox="0 0 408.02 408.02"><defs><style>.cls-1{fill:#222;}</style></defs><path class="cls-1" d="M35.07,0H373a9.14,9.14,0,0,0,1.75.73,41.47,41.47,0,0,1,24,14.45C403.64,21,406,27.93,408,35.06V373a5.92,5.92,0,0,0-.67,1.36C403,394.78,386.86,408,365.94,408Q204,408,42.05,408a45.85,45.85,0,0,1-11-1.27c-18.77-4.71-31-21-31-41.13Q0,204,0,42.48c0-1.2,0-2.39.06-3.59C.76,27.47,5.54,18,14,10.34,20,4.8,27.36,2.09,35.07,0ZM224.46,346.59v-5.21q0-49.39,0-98.8c0-2.52.09-5.05.32-7.56,1.65-17.7,21.3-30.86,38.2-25.6,14.21,4.41,22.54,15.92,22.56,31.49q.09,50.39,0,100.79v4.81h61c.06-1.12.14-2,.14-2.92,0-37.59.09-75.17,0-112.75-.06-22-8.75-40.35-25.47-54.43-27.6-23.25-64.25-24-91.19,4.12-1.75,1.83-3.3,3.86-5.75,6.75v-23.7H163.57v183Zm-102.31,0v-183H61.55v183Zm6.26-254.76A36.75,36.75,0,0,0,91.74,55.08C71.57,55.17,54.87,72,55.08,92a36.67,36.67,0,0,0,73.33-.11Z" transform="translate(0)"/></svg>