<svg id="Layer_1" data-name="Layer 1" xmlns="http://www.w3.org/2000/svg" viewBox="0 0 120.64 144"><defs><style>.cls-1{fill:#6ab245;}.cls-2{fill:#fff;}.cls-3{fill:#222;}</style></defs><path class="cls-1" d="M106.32,102.86l-.19.21a43.23,43.23,0,0,1-5.53,5.06,36.17,36.17,0,0,1-9,5.06A33.83,33.83,0,0,1,79,115.34a46.07,46.07,0,0,1-20.7-4.59A34,34,0,0,1,43.55,96.6q-5.44-9.54-5.44-24.36,0-13.86,5.62-24A41.06,41.06,0,0,1,58.54,32.62,37.17,37.17,0,0,1,78,27.09q12.18,0,18.45,4a46.9,46.9,0,0,1,10,8.47l1.7-8.38H132.5C120.58,12.36,100.63,0,78,0,41.51,0,11.91,32.24,11.91,72S41.51,144,78,144c22.48,0,42.33-12.23,54.27-30.91h-26Z" transform="translate(-11.91 0)"/><path class="cls-2" d="M132.55,31.21h-.05l.05.07Z" transform="translate(-11.91 0)"/><path class="cls-2" d="M132.55,112.72c-.08.13-.17.25-.25.37h.25Z" transform="translate(-11.91 0)"/><ellipse class="cls-3" cx="64.24" cy="71.22" rx="16.26" ry="17.99"/></svg>