<svg id="Layer_1" data-name="Layer 1" xmlns="http://www.w3.org/2000/svg" viewBox="0 0 273.52 144"><defs><style>.cls-1,.cls-3{fill:#e5e8ef;}.cls-1{opacity:0.75;}.cls-2{fill:#6ab245;}</style></defs><path class="cls-1" d="M208.8,7.2H79.2a64.72,64.72,0,0,0,0,129.44v.16H208.8v-.16a64.72,64.72,0,0,0,0-129.44Z" transform="translate(-14.48)"/><circle class="cls-2" cx="201.52" cy="72" r="72"/><circle class="cls-3" cx="201.52" cy="72.52" r="28.8"/><polygon class="cls-3" points="201.52 19.97 192.52 35.56 210.52 35.56 201.52 19.97"/><polygon class="cls-3" points="238.68 35.36 221.29 40.02 234.02 52.74 238.68 35.36"/><polygon class="cls-3" points="254.07 72.52 238.48 63.52 238.48 81.52 254.07 72.52"/><polygon class="cls-3" points="238.68 109.67 234.02 92.29 221.29 105.02 238.68 109.67"/><polygon class="cls-3" points="201.52 125.06 210.52 109.48 192.52 109.48 201.52 125.06"/><polygon class="cls-3" points="164.36 109.67 181.75 105.02 169.02 92.29 164.36 109.67"/><polygon class="cls-3" points="148.97 72.52 164.56 81.52 164.56 63.52 148.97 72.52"/><polygon class="cls-3" points="164.36 35.36 169.02 52.74 181.75 40.02 164.36 35.36"/><polygon class="cls-3" points="201.52 19.97 192.52 35.56 210.52 35.56 201.52 19.97"/></svg>