<svg id="Layer_1" data-name="Layer 1" xmlns="http://www.w3.org/2000/svg" viewBox="0 0 120.64 144"><defs><style>.cls-1{fill:#6ab245;}.cls-2{fill:#fff;}.cls-3{fill:#f2f4f9;}</style></defs><path class="cls-1" d="M94.41,102.86l-.19.21a42.78,42.78,0,0,1-5.53,5.06,36.09,36.09,0,0,1-9,5.06,33.87,33.87,0,0,1-12.6,2.15,46.06,46.06,0,0,1-20.7-4.59A34,34,0,0,1,31.64,96.6Q26.2,87.06,26.2,72.24q0-13.86,5.62-24A41.07,41.07,0,0,1,46.63,32.62a37.16,37.16,0,0,1,19.46-5.53q12.18,0,18.45,4a46.85,46.85,0,0,1,10,8.47l1.7-8.38h24.35C108.67,12.36,88.72,0,66.09,0,29.6,0,0,32.24,0,72s29.6,72,66.09,72c22.48,0,42.33-12.23,54.27-30.91h-26Z"/><path class="cls-2" d="M120.64,31.21h0l0,.07Z"/><path class="cls-2" d="M120.64,112.72c-.08.13-.17.25-.25.37h.25Z"/><ellipse class="cls-3" cx="64.24" cy="71.22" rx="16.26" ry="17.99"/></svg>