<svg id="Layer_1" data-name="Layer 1" xmlns="http://www.w3.org/2000/svg" viewBox="0 0 144 123.94"><defs><style>.cls-1{fill:#6ab245;}</style></defs><path class="cls-1" d="M71.89,144a10.23,10.23,0,0,1-6.79-2.56L3.5,87.35A10.29,10.29,0,0,1,17.07,71.89L65.2,114.15a10.16,10.16,0,0,0,13.41,0l48.33-42.28a10.29,10.29,0,1,1,13.55,15.48l-61.83,54.1A10.3,10.3,0,0,1,71.89,144Z" transform="translate(0 -20.06)"/><polygon class="cls-1" points="98.21 15.21 71.87 0 45.53 15.21 45.53 45.62 71.87 60.83 98.21 45.62 98.21 15.21"/></svg>